<?plantuml 1.2026.1?><svg xmlns="http://www.w3.org/2000/svg" xmlns:xlink="http://www.w3.org/1999/xlink" contentStyleType="text/css" data-diagram-type="CLASS" height="1152px" preserveAspectRatio="none" style="width:871px;height:1152px;background:#FFFFFF;" version="1.1" viewBox="0 0 871 1152" width="871px" zoomAndPan="magnify"><defs/><g><!--class TrackEnvironment--><g class="entity" data-qualified-name="TrackEnvironment" data-source-line="4" id="ent0002"><rect fill="#F1F1F1" height="202.9375" rx="2.5" ry="2.5" style="stroke:#181818;stroke-width:0.5;" width="270.1182" x="74.19" y="7"/><ellipse cx="140.8028" cy="27.1328" fill="#C2C2C2" rx="11" ry="11" style="stroke:#181818;stroke-width:1;"/><path d="M143.7715,32.7734 Q143.1934,33.0703 142.5528,33.2109 Q141.9122,33.3672 141.209,33.3672 Q138.709,33.3672 137.3809,31.7266 Q136.0684,30.0703 136.0684,26.9453 Q136.0684,23.8203 137.3809,22.1641 Q138.709,20.5078 141.209,20.5078 Q141.9122,20.5078 142.5528,20.6641 Q143.209,20.8203 143.7715,21.1172 L143.7715,23.8359 Q143.1465,23.2578 142.5528,22.9922 Q141.959,22.7109 141.334,22.7109 Q139.9903,22.7109 139.3028,23.7891 Q138.6153,24.8516 138.6153,26.9453 Q138.6153,29.0391 139.3028,30.1172 Q139.9903,31.1797 141.334,31.1797 Q141.959,31.1797 142.5528,30.9141 Q143.1465,30.6328 143.7715,30.0547 L143.7715,32.7734 Z " fill="#000000"/><text fill="#000000" font-family="sans-serif" font-size="12" font-style="italic" lengthAdjust="spacing" textLength="71.2266" x="189.8858" y="23.1387">&#171;Singleton&#187;</text><text fill="#000000" font-family="sans-serif" font-size="14" lengthAdjust="spacing" textLength="128.3926" x="161.3028" y="38.9639">TrackEnvironment</text><line style="stroke:#181818;stroke-width:0.5;" x1="75.19" x2="343.3082" y1="47.2656" y2="47.2656"/><text fill="#000000" font-family="sans-serif" font-size="14" lengthAdjust="spacing" text-decoration="underline" textLength="213.3701" x="80.19" y="64.2607">-instance : TrackEnvironment*</text><text fill="#000000" font-family="sans-serif" font-size="14" lengthAdjust="spacing" textLength="177.1191" x="80.19" y="80.5576">-trackTemperature : float</text><text fill="#000000" font-family="sans-serif" font-size="14" lengthAdjust="spacing" textLength="166.3594" x="80.19" y="96.8545">-timeOfDayHours : float</text><text fill="#000000" font-family="sans-serif" font-size="14" lengthAdjust="spacing" textLength="132.0635" x="80.19" y="113.1514">-isNightTime : bool</text><line style="stroke:#181818;stroke-width:0.5;" x1="75.19" x2="343.3082" y1="120.4531" y2="120.4531"/><text fill="#000000" font-family="sans-serif" font-size="14" lengthAdjust="spacing" textLength="144.3682" x="80.19" y="137.4482">-TrackEnvironment()</text><text fill="#000000" font-family="sans-serif" font-size="14" lengthAdjust="spacing" text-decoration="underline" textLength="258.1182" x="80.19" y="153.7451">+getInstance() : TrackEnvironment&amp;</text><text fill="#000000" font-family="sans-serif" font-size="14" lengthAdjust="spacing" textLength="169.0938" x="80.19" y="170.042">+getTrackTemp() : float</text><text fill="#000000" font-family="sans-serif" font-size="14" lengthAdjust="spacing" textLength="156.2012" x="80.19" y="186.3389">+checkIsNight() : bool</text><text fill="#000000" font-family="sans-serif" font-size="14" lengthAdjust="spacing" textLength="244.5352" x="80.19" y="202.6357">+advanceTime(hours : float) : void</text></g><!--class ITyreCompound--><g class="entity" data-qualified-name="ITyreCompound" data-source-line="16" id="ent0003"><rect fill="#F1F1F1" height="129.4844" rx="2.5" ry="2.5" style="stroke:#181818;stroke-width:0.5;" width="322.4883" x="27" y="716.2"/><ellipse cx="128.2949" cy="732.2" fill="#CDCDCD" rx="11" ry="11" style="stroke:#181818;stroke-width:1;"/><path d="M128.4043,727.5438 L127.248,732.6219 L129.5762,732.6219 L128.4043,727.5438 Z M126.9199,725.3094 L129.9043,725.3094 L133.2637,737.7 L130.8105,737.7 L130.0449,734.6375 L126.7637,734.6375 L126.0137,737.7 L123.5762,737.7 L126.9199,725.3094 Z " fill="#000000"/><text fill="#000000" font-family="sans-serif" font-size="14" font-style="italic" lengthAdjust="spacing" textLength="111.3984" x="148.7949" y="737.0467">ITyreCompound</text><line style="stroke:#181818;stroke-width:0.5;" x1="28" x2="348.4883" y1="748.2" y2="748.2"/><text fill="#000000" font-family="sans-serif" font-size="14" lengthAdjust="spacing" textLength="144.6484" x="33" y="765.1951">#currentWear : float</text><text fill="#000000" font-family="sans-serif" font-size="14" lengthAdjust="spacing" textLength="180.8242" x="33" y="781.492">#compoundName : string</text><line style="stroke:#181818;stroke-width:0.5;" x1="28" x2="348.4883" y1="788.7938" y2="788.7938"/><text fill="#000000" font-family="sans-serif" font-size="14" font-style="italic" lengthAdjust="spacing" textLength="310.4883" x="33" y="805.7889">+calculateGrip(lapsCompleted : float) : float</text><text fill="#000000" font-family="sans-serif" font-size="14" font-style="italic" lengthAdjust="spacing" textLength="143.4043" x="33" y="822.0857">+printStatus() : void</text><text fill="#000000" font-family="sans-serif" font-size="14" lengthAdjust="spacing" textLength="140.752" x="33" y="838.3826">+getName() : string</text></g><!--class WetTyre--><g class="entity" data-qualified-name="WetTyre" data-source-line="24" id="ent0004"><rect fill="#F1F1F1" height="96.8906" rx="2.5" ry="2.5" style="stroke:#181818;stroke-width:0.5;" width="322.4883" x="7" y="906.69"/><ellipse cx="134.4185" cy="922.69" fill="#C2C2C2" rx="11" ry="11" style="stroke:#181818;stroke-width:1;"/><path d="M137.3872,928.3306 Q136.8091,928.6275 136.1685,928.7681 Q135.5278,928.9244 134.8247,928.9244 Q132.3247,928.9244 130.9966,927.2838 Q129.6841,925.6275 129.6841,922.5025 Q129.6841,919.3775 130.9966,917.7213 Q132.3247,916.065 134.8247,916.065 Q135.5278,916.065 136.1685,916.2213 Q136.8247,916.3775 137.3872,916.6744 L137.3872,919.3931 Q136.7622,918.815 136.1685,918.5494 Q135.5747,918.2681 134.9497,918.2681 Q133.606,918.2681 132.9185,919.3463 Q132.231,920.4088 132.231,922.5025 Q132.231,924.5963 132.9185,925.6744 Q133.606,926.7369 134.9497,926.7369 Q135.5747,926.7369 136.1685,926.4713 Q136.7622,926.19 137.3872,925.6119 L137.3872,928.3306 Z " fill="#000000"/><text fill="#000000" font-family="sans-serif" font-size="14" lengthAdjust="spacing" textLength="59.1514" x="154.9185" y="927.5367">WetTyre</text><line style="stroke:#181818;stroke-width:0.5;" x1="8" x2="328.4883" y1="938.69" y2="938.69"/><text fill="#000000" font-family="sans-serif" font-size="14" lengthAdjust="spacing" textLength="218.6611" x="13" y="955.6851">-waterDisplacementRate : float</text><line style="stroke:#181818;stroke-width:0.5;" x1="8" x2="328.4883" y1="962.9869" y2="962.9869"/><text fill="#000000" font-family="sans-serif" font-size="14" lengthAdjust="spacing" textLength="310.4883" x="13" y="979.982">+calculateGrip(lapsCompleted : float) : float</text><text fill="#000000" font-family="sans-serif" font-size="14" lengthAdjust="spacing" textLength="143.4043" x="13" y="996.2789">+printStatus() : void</text></g><!--class SlickTyre--><g class="entity" data-qualified-name="SlickTyre" data-source-line="30" id="ent0005"><rect fill="#F1F1F1" height="96.8906" rx="2.5" ry="2.5" style="stroke:#181818;stroke-width:0.5;" width="322.4883" x="364" y="906.69"/><ellipse cx="489.1558" cy="922.69" fill="#C2C2C2" rx="11" ry="11" style="stroke:#181818;stroke-width:1;"/><path d="M492.1245,928.3306 Q491.5464,928.6275 490.9058,928.7681 Q490.2651,928.9244 489.562,928.9244 Q487.062,928.9244 485.7339,927.2838 Q484.4214,925.6275 484.4214,922.5025 Q484.4214,919.3775 485.7339,917.7213 Q487.062,916.065 489.562,916.065 Q490.2651,916.065 490.9058,916.2213 Q491.562,916.3775 492.1245,916.6744 L492.1245,919.3931 Q491.4995,918.815 490.9058,918.5494 Q490.312,918.2681 489.687,918.2681 Q488.3433,918.2681 487.6558,919.3463 Q486.9683,920.4088 486.9683,922.5025 Q486.9683,924.5963 487.6558,925.6744 Q488.3433,926.7369 489.687,926.7369 Q490.312,926.7369 490.9058,926.4713 Q491.4995,926.19 492.1245,925.6119 L492.1245,928.3306 Z " fill="#000000"/><text fill="#000000" font-family="sans-serif" font-size="14" lengthAdjust="spacing" textLength="63.6768" x="509.6558" y="927.5367">SlickTyre</text><line style="stroke:#181818;stroke-width:0.5;" x1="365" x2="685.4883" y1="938.69" y2="938.69"/><text fill="#000000" font-family="sans-serif" font-size="14" lengthAdjust="spacing" textLength="204.9346" x="370" y="955.6851">#optimalTempWindow : float</text><line style="stroke:#181818;stroke-width:0.5;" x1="365" x2="685.4883" y1="962.9869" y2="962.9869"/><text fill="#000000" font-family="sans-serif" font-size="14" lengthAdjust="spacing" textLength="310.4883" x="370" y="979.982">+calculateGrip(lapsCompleted : float) : float</text><text fill="#000000" font-family="sans-serif" font-size="14" lengthAdjust="spacing" textLength="143.4043" x="370" y="996.2789">+printStatus() : void</text></g><!--class SoftCompound--><g class="entity" data-qualified-name="SoftCompound" data-source-line="36" id="ent0006"><rect fill="#F1F1F1" height="80.5938" rx="2.5" ry="2.5" style="stroke:#181818;stroke-width:0.5;" width="322.4883" x="185" y="1064.58"/><ellipse cx="290.0273" cy="1080.58" fill="#C2C2C2" rx="11" ry="11" style="stroke:#181818;stroke-width:1;"/><path d="M292.9961,1086.2206 Q292.418,1086.5175 291.7773,1086.6581 Q291.1367,1086.8144 290.4336,1086.8144 Q287.9336,1086.8144 286.6055,1085.1738 Q285.293,1083.5175 285.293,1080.3925 Q285.293,1077.2675 286.6055,1075.6113 Q287.9336,1073.955 290.4336,1073.955 Q291.1367,1073.955 291.7773,1074.1113 Q292.4336,1074.2675 292.9961,1074.5644 L292.9961,1077.2831 Q292.3711,1076.705 291.7773,1076.4394 Q291.1836,1076.1581 290.5586,1076.1581 Q289.2148,1076.1581 288.5273,1077.2363 Q287.8398,1078.2988 287.8398,1080.3925 Q287.8398,1082.4863 288.5273,1083.5644 Q289.2148,1084.6269 290.5586,1084.6269 Q291.1836,1084.6269 291.7773,1084.3613 Q292.3711,1084.08 292.9961,1083.5019 L292.9961,1086.2206 Z " fill="#000000"/><text fill="#000000" font-family="sans-serif" font-size="14" lengthAdjust="spacing" textLength="103.9336" x="310.5273" y="1085.4267">SoftCompound</text><line style="stroke:#181818;stroke-width:0.5;" x1="186" x2="506.4883" y1="1096.58" y2="1096.58"/><text fill="#000000" font-family="sans-serif" font-size="14" lengthAdjust="spacing" textLength="161.2461" x="191" y="1113.5751">-coldGrainFactor : float</text><line style="stroke:#181818;stroke-width:0.5;" x1="186" x2="506.4883" y1="1120.8769" y2="1120.8769"/><text fill="#000000" font-family="sans-serif" font-size="14" lengthAdjust="spacing" textLength="310.4883" x="191" y="1137.872">+calculateGrip(lapsCompleted : float) : float</text></g><!--class HardCompound--><g class="entity" data-qualified-name="HardCompound" data-source-line="41" id="ent0007"><rect fill="#F1F1F1" height="80.5938" rx="2.5" ry="2.5" style="stroke:#181818;stroke-width:0.5;" width="322.4883" x="542" y="1064.58"/><ellipse cx="644.0879" cy="1080.58" fill="#C2C2C2" rx="11" ry="11" style="stroke:#181818;stroke-width:1;"/><path d="M647.0566,1086.2206 Q646.4785,1086.5175 645.8379,1086.6581 Q645.1973,1086.8144 644.4941,1086.8144 Q641.9941,1086.8144 640.666,1085.1738 Q639.3535,1083.5175 639.3535,1080.3925 Q639.3535,1077.2675 640.666,1075.6113 Q641.9941,1073.955 644.4941,1073.955 Q645.1973,1073.955 645.8379,1074.1113 Q646.4941,1074.2675 647.0566,1074.5644 L647.0566,1077.2831 Q646.4316,1076.705 645.8379,1076.4394 Q645.2441,1076.1581 644.6191,1076.1581 Q643.2754,1076.1581 642.5879,1077.2363 Q641.9004,1078.2988 641.9004,1080.3925 Q641.9004,1082.4863 642.5879,1083.5644 Q643.2754,1084.6269 644.6191,1084.6269 Q645.2441,1084.6269 645.8379,1084.3613 Q646.4316,1084.08 647.0566,1083.5019 L647.0566,1086.2206 Z " fill="#000000"/><text fill="#000000" font-family="sans-serif" font-size="14" lengthAdjust="spacing" textLength="109.8125" x="664.5879" y="1085.4267">HardCompound</text><line style="stroke:#181818;stroke-width:0.5;" x1="543" x2="863.4883" y1="1096.58" y2="1096.58"/><text fill="#000000" font-family="sans-serif" font-size="14" lengthAdjust="spacing" textLength="143.3701" x="548" y="1113.5751">-warmUpTime : float</text><line style="stroke:#181818;stroke-width:0.5;" x1="543" x2="863.4883" y1="1120.8769" y2="1120.8769"/><text fill="#000000" font-family="sans-serif" font-size="14" lengthAdjust="spacing" textLength="310.4883" x="548" y="1137.872">+calculateGrip(lapsCompleted : float) : float</text></g><!--class RaceCar--><g class="entity" data-qualified-name="RaceCar" data-source-line="46" id="ent0008"><rect fill="#F1F1F1" height="178.375" rx="2.5" ry="2.5" style="stroke:#181818;stroke-width:0.5;" width="518.4746" x="212.01" y="460.83"/><ellipse cx="437.6335" cy="476.83" fill="#C2C2C2" rx="11" ry="11" style="stroke:#181818;stroke-width:1;"/><path d="M440.6023,482.4706 Q440.0242,482.7675 439.3835,482.9081 Q438.7429,483.0644 438.0398,483.0644 Q435.5398,483.0644 434.2117,481.4238 Q432.8992,479.7675 432.8992,476.6425 Q432.8992,473.5175 434.2117,471.8613 Q435.5398,470.205 438.0398,470.205 Q438.7429,470.205 439.3835,470.3613 Q440.0398,470.5175 440.6023,470.8144 L440.6023,473.5331 Q439.9773,472.955 439.3835,472.6894 Q438.7898,472.4081 438.1648,472.4081 Q436.821,472.4081 436.1335,473.4863 Q435.446,474.5488 435.446,476.6425 Q435.446,478.7363 436.1335,479.8144 Q436.821,480.8769 438.1648,480.8769 Q438.7898,480.8769 439.3835,480.6113 Q439.9773,480.33 440.6023,479.7519 L440.6023,482.4706 Z " fill="#000000"/><text fill="#000000" font-family="sans-serif" font-size="14" lengthAdjust="spacing" textLength="58.7275" x="458.1335" y="481.6767">RaceCar</text><line style="stroke:#181818;stroke-width:0.5;" x1="213.01" x2="729.4846" y1="492.83" y2="492.83"/><text fill="#000000" font-family="sans-serif" font-size="14" lengthAdjust="spacing" textLength="136.4795" x="218.01" y="509.8251">-teamName : string</text><text fill="#000000" font-family="sans-serif" font-size="14" lengthAdjust="spacing" textLength="171.7188" x="218.01" y="526.122">-fuelTankCapacity : float</text><text fill="#000000" font-family="sans-serif" font-size="14" lengthAdjust="spacing" textLength="130.6074" x="218.01" y="542.4189">-currentFuel : float</text><text fill="#000000" font-family="sans-serif" font-size="14" lengthAdjust="spacing" textLength="226.625" x="218.01" y="558.7157">-currentTyres : ITyreCompound*</text><text fill="#000000" font-family="sans-serif" font-size="14" lengthAdjust="spacing" textLength="277.1016" x="218.01" y="575.0126">-usedTyres : vector~ITyreCompound*~</text><line style="stroke:#181818;stroke-width:0.5;" x1="213.01" x2="729.4846" y1="582.3144" y2="582.3144"/><text fill="#000000" font-family="sans-serif" font-size="14" lengthAdjust="spacing" textLength="298.1221" x="218.01" y="599.3095">+executePitStop(fuelAmount : float) : void</text><text fill="#000000" font-family="sans-serif" font-size="14" lengthAdjust="spacing" textLength="506.4746" x="218.01" y="615.6064">+executePitStop(fuelAmount : float, newTyres : ITyreCompound*) : void</text><text fill="#000000" font-family="sans-serif" font-size="14" lengthAdjust="spacing" textLength="158.3818" x="218.01" y="631.9032">+completeLap() : float</text></g><!--class EnduranceSimulation--><g class="entity" data-qualified-name="EnduranceSimulation" data-source-line="57" id="ent0009"><rect fill="#F1F1F1" height="96.8906" rx="2.5" ry="2.5" style="stroke:#181818;stroke-width:0.5;" width="184.6826" x="262.9" y="286.94"/><ellipse cx="279.3005" cy="302.94" fill="#C2C2C2" rx="11" ry="11" style="stroke:#181818;stroke-width:1;"/><path d="M282.2693,308.5806 Q281.6912,308.8775 281.0505,309.0181 Q280.4099,309.1744 279.7068,309.1744 Q277.2068,309.1744 275.8787,307.5338 Q274.5662,305.8775 274.5662,302.7525 Q274.5662,299.6275 275.8787,297.9713 Q277.2068,296.315 279.7068,296.315 Q280.4099,296.315 281.0505,296.4713 Q281.7068,296.6275 282.2693,296.9244 L282.2693,299.6431 Q281.6443,299.065 281.0505,298.7994 Q280.4568,298.5181 279.8318,298.5181 Q278.488,298.5181 277.8005,299.5963 Q277.113,300.6588 277.113,302.7525 Q277.113,304.8463 277.8005,305.9244 Q278.488,306.9869 279.8318,306.9869 Q280.4568,306.9869 281.0505,306.7213 Q281.6443,306.44 282.2693,305.8619 L282.2693,308.5806 Z " fill="#000000"/><text fill="#000000" font-family="sans-serif" font-size="14" lengthAdjust="spacing" textLength="149.5703" x="293.6118" y="307.7867">EnduranceSimulation</text><line style="stroke:#181818;stroke-width:0.5;" x1="263.9" x2="446.5826" y1="318.94" y2="318.94"/><text fill="#000000" font-family="sans-serif" font-size="14" lengthAdjust="spacing" textLength="172.6826" x="268.9" y="335.9351">-grid : vector~RaceCar~</text><text fill="#000000" font-family="sans-serif" font-size="14" lengthAdjust="spacing" textLength="157.7666" x="268.9" y="352.232">-totalRaceHours : float</text><line style="stroke:#181818;stroke-width:0.5;" x1="263.9" x2="446.5826" y1="359.5338" y2="359.5338"/><text fill="#000000" font-family="sans-serif" font-size="14" lengthAdjust="spacing" textLength="159.8105" x="268.9" y="376.5289">+start24hRace() : void</text></g><!--reverse link ITyreCompound to WetTyre--><g class="link" data-entity-1="ent0003" data-entity-2="ent0004" data-link-type="extension" data-source-line="63" id="lnk10"><path codeLine="63" d="M178.7239,863.9399 C176.4039,883.9199 175.96,887.72 173.79,906.38" fill="none" id="ITyreCompound-backto-WetTyre" style="stroke:#181818;stroke-width:1;"/><polygon fill="none" points="180.8,846.06,172.7639,863.2478,184.6838,864.6319,180.8,846.06" style="stroke:#181818;stroke-width:1;"/></g><!--reverse link ITyreCompound to SlickTyre--><g class="link" data-entity-1="ent0003" data-entity-2="ent0005" data-link-type="extension" data-source-line="64" id="lnk11"><path codeLine="64" d="M329.7584,854.2508 C368.7784,874.1908 395.06,887.62 431.52,906.24" fill="none" id="ITyreCompound-backto-SlickTyre" style="stroke:#181818;stroke-width:1;"/><polygon fill="none" points="313.73,846.06,327.0281,859.5936,332.4887,848.908,313.73,846.06" style="stroke:#181818;stroke-width:1;"/></g><!--reverse link SlickTyre to SoftCompound--><g class="link" data-entity-1="ent0005" data-entity-2="ent0006" data-link-type="extension" data-source-line="65" id="lnk12"><path codeLine="65" d="M453.7379,1015.1481 C430.0279,1034.7181 416.77,1045.67 394.17,1064.32" fill="none" id="SlickTyre-backto-SoftCompound" style="stroke:#181818;stroke-width:1;"/><polygon fill="none" points="467.62,1003.69,449.9186,1010.5208,457.5573,1019.7755,467.62,1003.69" style="stroke:#181818;stroke-width:1;"/></g><!--reverse link SlickTyre to HardCompound--><g class="link" data-entity-1="ent0005" data-entity-2="ent0007" data-link-type="extension" data-source-line="66" id="lnk13"><path codeLine="66" d="M596.3911,1015.1856 C619.9711,1034.7556 633.12,1045.67 655.59,1064.32" fill="none" id="SlickTyre-backto-HardCompound" style="stroke:#181818;stroke-width:1;"/><polygon fill="none" points="582.54,1003.69,592.5592,1019.8026,600.2229,1010.5685,582.54,1003.69" style="stroke:#181818;stroke-width:1;"/></g><!--reverse link RaceCar to ITyreCompound--><g class="link" data-entity-1="ent0008" data-entity-2="ent0003" data-link-type="aggregation" data-source-line="68" id="lnk14"><path codeLine="68" d="M352.5008,647.0676 C321.0808,672.4876 296.76,692.16 267.54,715.8" fill="none" id="RaceCar-backto-ITyreCompound" style="stroke:#181818;stroke-width:1;"/><polygon fill="none" points="361.83,639.52,354.6495,640.1841,352.5008,647.0676,359.6813,646.4035,361.83,639.52" style="stroke:#181818;stroke-width:1;"/><text fill="#000000" font-family="sans-serif" font-size="13" lengthAdjust="spacing" textLength="143.5522" x="323.24" y="682.2669">Polymorfn&#237; kompozice</text></g><!--reverse link EnduranceSimulation to RaceCar--><g class="link" data-entity-1="ent0009" data-entity-2="ent0008" data-link-type="composition" data-source-line="69" id="lnk15"><path codeLine="69" d="M387.0266,394.6346 C399.3166,417.1646 408.64,434.26 422.92,460.43" fill="none" id="EnduranceSimulation-backto-RaceCar" style="stroke:#181818;stroke-width:1;"/><polygon fill="#181818" points="381.28,384.1,380.6418,391.2828,387.0266,394.6346,387.6648,387.4518,381.28,384.1" style="stroke:#181818;stroke-width:1;"/><text fill="#000000" font-family="sans-serif" font-size="13" lengthAdjust="spacing" textLength="173.8306" x="408.24" y="426.8969">Kompozice (obsahuje grid)</text></g><!--reverse link TrackEnvironment to ITyreCompound--><g class="link" data-entity-1="ent0002" data-entity-2="ent0003" data-link-type="dependency" data-source-line="70" id="lnk16"><path codeLine="70" d="M204.0293,216.1534 C200.7393,286.3934 196.84,376.3 194.24,460.83 C191.53,549.17 189.87,651.3 189,715.75" fill="none" id="TrackEnvironment-backto-ITyreCompound" style="stroke:#181818;stroke-width:1;"/><polygon fill="#181818" points="204.31,210.16,199.8933,218.963,204.0761,215.1545,207.8845,219.3373,204.31,210.16" style="stroke:#181818;stroke-width:1;"/><text fill="#000000" font-family="sans-serif" font-size="13" lengthAdjust="spacing" textLength="143.2856" x="197.24" y="426.8969">Z&#225;vislost (&#269;te teplotu)</text></g><!--reverse link TrackEnvironment to EnduranceSimulation--><g class="link" data-entity-1="ent0002" data-entity-2="ent0009" data-link-type="dependency" data-source-line="71" id="lnk17"><path codeLine="71" d="M278.0371,215.4425 C295.2471,241.9525 309.75,264.29 324.2,286.55" fill="none" id="TrackEnvironment-backto-EnduranceSimulation" style="stroke:#181818;stroke-width:1;"/><polygon fill="#181818" points="274.77,210.41,276.3156,220.1368,277.4926,214.6038,283.0256,215.7807,274.77,210.41" style="stroke:#181818;stroke-width:1;"/><text fill="#000000" font-family="sans-serif" font-size="13" lengthAdjust="spacing" textLength="148.4146" x="305.24" y="253.0069">Z&#225;vislost (&#345;&#237;d&#237; 24h &#269;as)</text></g><?plantuml-src jLLBQXj14DtFAHePmiYA88IiZ34OVqM2Oom5GtQbdfBKKK_tqDqZHNRa6_W0NkO0FeMSUwLwFjACD85yo4vKlQxtwbNLo4w5Ii10pBW4Qu-TCsAOEknnhVhY3jcRmAuXiLQQJuoEaJcJOX1aRzZ009-UgPamMiMe73iyx0irbkYqEZfYzm5ZNNPl7JZ1bqme-gKuieETX_iPqlde0EC43RZKUE18Qd1vKiJuSNGAYqkT6bjB2NibnXCt80J5XrhBBBnD4hOftDde6QFh5PB2TeEeLncSK8DILmOhUJkCJv1FUpbvbYgeEmoYcI_h5OMJgbwFccaH1SiWWA7r7Rjy0AmtM1WyqN6YKnLbtkqndXf3IcuHJ8MPuWNi2hAMgGxPddTNLbqo3fAd4XnU69644XBhgzDmCAhAsVHJUPjGGTSder8RhZKNTdZIB5ZGBijrk2Mhg8TYxdDYDgV29X8uUZzlA53txqy5DgfQq_Ube36L0lQOJcXdGFh1tGeLwVb_9TSZLnjUbuOaemi3GfsJfThyFVkQv19Cj4Ko1nD_IehL_zVwDpIf4rgrlBH3YBSNhCj6ASe1gEa99C25MzGkiTZNSy8qnVrm_2dKLZs__THYLAPdwFrwgACUihxmAtBwI5qBceHEGY_cEAQyspcmtqA_PWhdpQfgXNXXtWUeVWFMlfsfA3N-uFiYzguBhGeFnqP4cuuAVnzoUxK3wIFR7xGEsGt6lNqtyTdQhjM_4OVVkjtow9fIwuC8DgUH9ohBkfshxbWGb1kXALDdE62jQoqNiJOZjNfcKn-_4nnRGPCR-_I-h4KltvTe5kgXXKdw1JEhsgrWzp-bYVhpwljCMAcjO-7B8trN72PIk_HN1PeqRPNvyRHwZgWJyfszF89jjtu2?></g></svg>